<svg width="600" height="367" viewBox="0 0 600 367" fill="none" xmlns="http://www.w3.org/2000/svg">
<rect width="600" height="367" fill="white"/>
<rect width="600" height="367" fill="url(#paint0_linear)" fill-opacity="0.85"/>
<path d="M573.473 309.712C578.535 311.986 580.414 315.245 581.926 317.866C583.25 320.159 584.208 321.821 587.214 323.174L584.537 329.139C579.474 326.857 577.596 323.597 576.084 320.985C574.759 318.684 573.801 317.03 570.796 315.668L573.482 309.684L573.473 309.712ZM559.516 306.396L555.374 311.478C557.928 313.573 558.426 315.424 559.131 317.979C559.91 320.901 560.878 324.555 565.179 328.04L569.312 322.967C566.748 320.882 566.259 319.031 565.555 316.476C564.775 313.554 563.808 309.9 559.506 306.415L559.516 306.396ZM546.874 299.651L541.558 303.493C543.483 306.18 543.483 308.087 543.483 310.736C543.483 313.761 543.483 317.519 546.714 322.009L552.011 318.186C550.086 315.499 550.086 313.592 550.086 310.943C550.086 307.918 550.086 304.16 546.846 299.67L546.874 299.651ZM536.43 289.787L530.296 292.135C531.461 295.236 530.973 297.077 530.296 299.651C529.517 302.573 528.54 306.227 530.503 311.394L536.617 309.073C535.443 305.983 535.941 304.132 536.617 301.558C537.406 298.636 538.383 294.982 536.411 289.815L536.43 289.787ZM528.897 277.603L522.322 278.27C522.661 281.558 521.703 283.211 520.378 285.503C518.866 288.124 516.978 291.375 517.561 296.898L524.06 296.241C523.731 292.953 524.68 291.299 526.014 289.007C527.526 286.396 529.404 283.136 528.831 277.612L528.897 277.603ZM524.699 263.878L518.218 262.825C517.692 266.085 516.34 267.438 514.461 269.307C512.32 271.44 509.662 274.099 508.769 279.575L515.222 280.618C515.757 277.358 517.1 276.006 518.979 274.136C521.12 272.004 523.778 269.345 524.671 263.868L524.699 263.878ZM524.238 249.523L518.246 246.836C516.894 249.852 515.241 250.801 512.94 252.125C510.319 253.638 507.069 255.507 504.787 260.58L510.751 263.267C512.104 260.251 513.766 259.293 516.058 257.969C518.678 256.466 521.937 254.587 524.21 249.514L524.238 249.523ZM527.498 235.545L522.416 231.402C520.322 233.957 518.472 234.455 515.917 235.159C512.996 235.939 509.342 236.907 505.858 241.209L510.93 245.343C513.015 242.778 514.865 242.29 517.42 241.585C520.341 240.805 523.994 239.838 527.479 235.535L527.498 235.545ZM534.382 222.9L530.541 217.573C527.855 219.509 525.948 219.509 523.299 219.509C520.275 219.509 516.518 219.509 512.029 222.74L515.851 228.039C518.537 226.113 520.453 226.113 523.093 226.113C526.117 226.113 529.874 226.113 534.363 222.872L534.382 222.9ZM544.188 212.425L541.896 206.319C538.806 207.493 536.965 206.995 534.382 206.319C531.461 205.539 527.808 204.562 522.642 206.526L524.962 212.641C528.052 211.467 529.902 211.965 532.476 212.641C535.396 213.43 539.05 214.407 544.206 212.435L544.188 212.425ZM556.416 204.919L555.749 198.343C552.462 198.681 550.8 197.723 548.517 196.399C545.897 194.877 542.647 192.998 537.125 193.58L537.792 200.091C541.079 199.752 542.732 200.72 545.024 202.035C547.635 203.557 550.894 205.436 556.416 204.853V204.919ZM570.148 200.72L571.2 194.238C567.941 193.712 566.588 192.359 564.719 190.48C562.587 188.338 559.929 185.68 554.453 184.787L553.411 191.241C556.67 191.777 558.022 193.12 559.891 194.999C562.024 197.141 564.681 199.799 570.157 200.692L570.148 200.72ZM584.499 200.26L587.185 194.266C584.18 192.913 583.222 191.26 581.897 188.958C580.395 186.347 578.516 183.078 573.444 180.804L570.786 186.92C573.792 188.273 574.75 189.935 576.074 192.228C577.577 194.849 579.456 198.108 584.527 200.382L584.499 200.26ZM598.484 203.67L602.636 198.588C600.081 196.493 599.583 194.642 598.879 192.087C598.099 189.165 597.132 185.511 592.839 182.025L588.707 187.098C591.262 189.184 591.759 191.035 592.464 193.59C593.253 196.511 594.22 200.166 598.512 203.651L598.484 203.67ZM611.117 210.405L616.433 206.563C614.507 203.876 614.507 201.969 614.507 199.32C614.507 196.295 614.507 192.538 611.276 188.047L605.979 191.88C607.905 194.557 607.905 196.474 607.905 199.114C607.905 202.139 607.905 205.896 611.145 210.387L611.117 210.405ZM621.589 220.213L627.722 217.883C626.558 214.793 627.046 212.951 627.722 210.368C628.502 207.446 629.479 203.792 627.516 198.625L621.364 201.011C622.538 204.102 622.04 205.953 621.364 208.527C620.575 211.448 619.598 215.103 621.57 220.26L621.589 220.213ZM629.084 232.473L635.612 231.806C635.283 228.518 636.241 226.855 637.565 224.572C639.077 221.951 640.965 218.701 640.383 213.177L633.884 213.844C634.212 217.132 633.254 218.785 631.93 221.077C630.418 223.689 628.539 226.939 629.112 232.473H629.084ZM633.245 246.207L639.726 247.259C640.252 243.99 641.604 242.647 643.482 240.777C645.624 238.645 648.282 235.986 649.174 230.509L642.722 229.466C642.186 232.726 640.843 234.079 638.965 235.948C636.823 238.081 634.165 240.74 633.273 246.216L633.245 246.207ZM633.705 260.561L639.697 263.258C641.05 260.233 642.712 259.284 645.004 257.959C647.624 256.447 650.884 254.577 653.156 249.504L647.089 246.808C645.737 249.824 644.084 250.782 641.782 252.107C639.171 253.61 635.912 255.489 633.63 260.561H633.705ZM630.333 274.521L635.424 278.674C637.518 276.109 639.369 275.62 641.923 274.916C644.844 274.136 648.498 273.168 651.982 268.866L646.92 264.732C644.835 267.288 642.985 267.786 640.43 268.49C637.509 269.26 633.855 270.237 630.362 274.531L630.333 274.521ZM623.608 287.157L627.45 292.474C630.136 290.548 632.043 290.548 634.691 290.548C637.716 290.548 641.473 290.548 645.962 287.316L642.139 282.018C639.463 283.944 637.547 283.944 634.907 283.944C631.883 283.944 628.126 283.944 623.637 287.185L623.608 287.157ZM613.812 297.631L616.142 303.766C619.232 302.591 621.073 303.089 623.655 303.766C626.567 304.555 630.23 305.532 635.386 303.559L633.001 297.406C629.911 298.58 628.06 298.082 625.487 297.406C622.566 296.617 618.912 295.64 613.756 297.612L613.812 297.631ZM601.546 305.128L602.204 311.657C605.491 311.328 607.153 312.286 609.436 313.611C612.056 315.123 615.306 317.011 620.828 316.429L620.162 309.928C616.874 310.257 615.221 309.299 612.929 307.974C610.318 306.462 607.059 304.573 601.546 305.156V305.128ZM587.805 309.289L586.753 315.771C590.012 316.298 591.365 317.65 593.234 319.529C595.366 321.671 598.024 324.33 603.5 325.222L604.552 318.768C601.293 318.233 599.94 316.889 598.071 315.01C595.939 312.869 593.281 310.21 587.805 309.318V309.289ZM570.805 336.11L566.814 344.988C571.284 346.998 572.693 349.459 574.656 352.86C576.891 356.74 579.662 361.568 587.167 364.941L591.139 356.101C586.669 354.091 585.26 351.639 583.297 348.238C581.062 344.358 578.281 339.529 570.786 336.148L570.805 336.11ZM550.124 331.272L543.972 338.787C547.775 341.887 548.499 344.621 549.513 348.416C550.668 352.747 552.105 358.13 558.473 363.335L564.597 355.819C560.84 352.719 560.07 349.976 559.056 346.19C557.91 341.859 556.473 336.476 550.095 331.272H550.124ZM531.377 321.201L523.487 326.894C526.305 330.868 526.305 333.705 526.305 337.632C526.305 342.113 526.305 347.684 531.095 354.354L538.956 348.717C536.092 344.743 536.092 341.906 536.092 337.979C536.092 333.508 536.092 327.928 531.301 321.258L531.377 321.201ZM515.814 306.678L506.816 309.985C508.553 314.569 507.811 317.303 506.816 321.098C505.651 325.419 504.205 330.802 507.116 338.496H507.163L516.218 335.058C514.48 330.473 515.213 327.74 516.218 323.944C517.382 319.623 518.829 314.24 515.908 306.546L515.814 306.678ZM504.731 288.462L495.047 289.402C495.536 294.277 494.108 296.739 492.155 300.13C489.91 304.01 487.12 308.838 487.947 317.04L497.583 316.1C497.086 311.225 498.523 308.773 500.476 305.372C502.721 301.502 505.51 296.673 504.684 288.462H504.731ZM498.56 268.105L488.952 266.546C488.172 271.374 486.134 273.385 483.382 276.156C480.217 279.312 476.272 283.258 474.929 291.375L484.603 292.934C485.392 288.096 487.421 286.095 490.173 283.314C493.347 280.158 497.292 276.222 498.626 268.105H498.56ZM497.978 246.846L489.111 242.853C487.102 247.325 484.641 248.734 481.241 250.697C477.362 252.933 472.534 255.714 469.153 263.22L477.982 267.194C480.001 262.722 482.452 261.313 485.852 259.35C489.731 257.123 494.559 254.333 497.931 246.836L497.978 246.846ZM502.815 226.169L495.301 220.016C492.202 223.82 489.468 224.544 485.674 225.558C481.344 226.714 475.962 228.151 470.768 234.521L478.282 240.646C481.382 236.888 484.124 236.118 487.909 235.103C492.239 233.957 497.621 232.52 502.824 226.141L502.815 226.169ZM512.893 207.418L507.201 199.518C503.228 202.392 500.392 202.383 496.466 202.383C491.986 202.383 486.416 202.383 479.747 207.174L485.383 215.037C489.356 212.172 492.192 212.172 496.109 212.172C500.589 212.172 506.168 212.172 512.836 207.381L512.893 207.418ZM527.404 191.889L524.051 182.833C519.467 184.571 516.734 183.829 512.94 182.833C508.619 181.668 503.237 180.222 495.545 183.134L498.983 192.19C503.566 190.452 506.299 191.185 510.094 192.19C514.414 193.355 519.796 194.802 527.479 191.88L527.404 191.889ZM545.568 180.701L544.629 171.015C539.754 171.504 537.303 170.076 533.913 168.122C530.034 165.877 525.206 163.087 517.006 163.913L517.946 173.552C522.82 173.054 525.272 174.491 528.662 176.445C532.541 178.681 537.359 181.481 545.568 180.654V180.701ZM565.931 174.529L567.48 164.919C562.643 164.139 560.643 162.1 557.872 159.348C554.707 156.182 550.781 152.227 542.657 150.893L541.098 160.616C545.935 161.405 547.935 163.434 550.706 166.187C553.871 169.362 557.806 173.308 565.931 174.642V174.529ZM587.176 173.993L591.168 165.116C586.697 163.115 585.288 160.654 583.325 157.253C581.09 153.373 578.31 148.535 570.815 145.162L566.823 154.04C571.294 156.041 572.703 158.502 574.665 161.903C576.901 165.783 579.681 170.611 587.176 173.984V173.993ZM607.839 178.869L613.991 171.354C610.234 168.253 609.464 165.51 608.459 161.724C607.304 157.394 605.867 152.011 599.499 146.806L593.375 154.322C597.132 157.422 597.902 160.165 598.907 163.951C600.062 168.282 601.499 173.665 607.867 178.869H607.839ZM626.595 188.94L634.494 183.247C631.676 179.273 631.676 176.436 631.676 172.509C631.676 168.037 631.676 162.457 626.886 155.787L619.025 161.424C621.89 165.398 621.89 168.235 621.89 172.152C621.89 176.633 621.89 182.213 626.68 188.883L626.595 188.94ZM642.168 203.454L651.259 200.006C649.522 195.422 650.264 192.679 651.259 188.893C652.424 184.571 653.87 179.188 650.959 171.494H650.912L641.858 174.933C643.595 179.517 642.863 182.251 641.858 186.037C640.693 190.368 639.247 195.741 642.168 203.435V203.454ZM653.344 221.528L663.028 220.589C662.53 215.713 663.967 213.261 665.921 209.861C668.165 205.99 670.955 201.162 670.128 192.951H670.081L660.445 193.89C660.943 198.766 659.506 201.218 657.552 204.619C655.307 208.489 652.518 213.318 653.344 221.528ZM659.468 241.886L669.076 243.445C669.856 238.607 671.894 236.606 674.646 233.835C677.811 230.669 681.756 226.733 683.099 218.616H683.052L673.387 217.122C672.598 221.96 670.57 223.961 667.818 226.742C664.643 229.899 660.698 233.835 659.365 241.951L659.468 241.886ZM660.013 263.211L668.889 267.203C670.898 262.731 673.35 261.322 676.75 259.359C680.629 257.123 685.456 254.342 688.838 246.846L679.962 242.853C677.952 247.325 675.491 248.734 672.091 250.697C668.212 252.933 663.385 255.714 660.013 263.211ZM655.129 283.878L662.643 290.031C665.733 286.273 668.475 285.513 672.27 284.498C676.6 283.342 681.981 281.905 687.175 275.536L679.661 269.411C676.571 273.168 673.829 273.939 670.044 274.944C665.714 276.1 660.332 277.537 655.129 283.906V283.878ZM645.06 302.638L650.752 310.539C654.725 307.664 657.561 307.721 661.487 307.721C665.958 307.721 671.537 307.721 678.206 302.93L672.57 295.066C668.597 297.932 665.761 297.932 661.844 297.885C657.364 297.885 651.785 297.885 645.117 302.685L645.06 302.638ZM630.549 318.176L633.996 327.27C638.58 325.532 641.322 326.265 645.107 327.27C649.428 328.435 654.81 329.882 662.502 326.969V326.922L659.064 317.866C654.481 319.604 651.748 318.872 647.963 317.866C643.642 316.701 638.251 315.255 630.568 318.176H630.549ZM612.479 329.356L613.418 339.041C618.292 338.543 620.744 339.98 624.134 341.934C628.013 344.18 632.841 346.97 641.04 346.143V346.096L640.101 336.458C635.227 336.955 632.775 335.518 629.385 333.564C625.506 331.319 620.687 328.529 612.479 329.356ZM592.116 335.481L590.557 345.091C595.394 345.871 597.395 347.909 600.175 350.662C603.331 353.828 607.266 357.773 615.381 359.117L616.884 349.44C612.047 348.651 610.046 346.622 607.275 343.87C604.12 340.694 600.184 336.749 592.06 335.415L592.116 335.481ZM567.527 368.624L561.892 381.061C568.157 383.88 570.138 387.327 572.881 392.09C576.018 397.53 579.916 404.303 590.426 409V408.934L595.995 396.553C589.731 393.734 587.749 390.287 584.997 385.524C581.869 380.085 577.972 373.311 567.462 368.614L567.527 368.624ZM538.449 361.775L529.827 372.344C535.152 376.684 536.176 380.526 537.594 385.843C539.21 391.912 541.22 399.455 550.152 406.745L558.736 396.224C553.42 391.874 552.396 388.041 550.978 382.724C549.363 376.656 547.343 369.103 538.411 361.822L538.449 361.775ZM512.113 347.731L501.058 355.706C505.069 361.277 505.06 365.251 505.06 370.737C505.06 377.022 505.06 384.829 511.784 394.223H511.831L522.848 386.275C518.829 380.705 518.838 376.731 518.838 371.244C518.838 364.969 518.838 357.153 512.113 347.759V347.731ZM490.417 327.326L477.662 332.164C480.104 338.59 479.071 342.423 477.662 347.74C476.037 353.809 473.999 361.343 478.094 372.165H478.151L490.849 367.346C488.407 360.92 489.44 357.087 490.849 351.78C492.483 345.72 494.512 338.167 490.426 327.355L490.417 327.326ZM474.751 301.99L461.179 303.371C461.874 310.201 459.883 313.639 457.121 318.402C453.984 323.832 450.068 330.614 451.233 342.066H451.289L464.804 340.694C464.109 333.855 466.1 330.417 468.852 325.664C471.999 320.234 475.915 313.451 474.751 301.999V301.99ZM466.307 273.347L452.848 271.168C451.73 277.95 448.913 280.759 445.043 284.62C440.591 289.054 435.068 294.578 433.218 305.954H433.275L446.687 308.124C447.786 301.351 450.594 298.542 454.492 294.653C458.934 290.257 464.466 284.733 466.307 273.347ZM465.368 243.558L452.933 237.921C450.115 244.187 446.668 246.169 441.906 248.922C436.468 252.05 429.696 255.949 425 266.461H425.056L437.445 272.032C440.262 265.766 443.709 263.784 448.471 261.04C453.909 257.903 460.681 254.004 465.377 243.492L465.368 243.558ZM472.215 214.473L461.649 205.849C457.309 211.176 453.468 212.2 448.152 213.618C442.094 215.234 434.543 217.245 427.254 226.178H427.301L437.849 234.831C442.197 229.504 446.029 228.48 451.345 227.062C457.413 225.455 464.955 223.435 472.243 214.501L472.215 214.473ZM486.331 188.254L478.357 177.187C472.788 181.199 468.805 181.189 463.33 181.189C457.046 181.189 449.241 181.189 439.849 187.916V187.963L447.795 198.982C453.365 194.971 457.338 194.971 462.823 194.971C469.106 194.971 476.911 194.971 486.303 188.254H486.331ZM506.731 166.544L501.885 153.786C495.47 156.229 491.629 155.186 486.322 153.786C480.255 152.152 472.713 150.123 461.902 154.209V154.265L466.73 166.966C473.145 164.524 476.986 165.557 482.293 166.966C488.351 168.601 495.893 170.64 506.713 166.544H506.731ZM532.072 150.865L530.691 137.29C523.863 137.985 520.425 135.994 515.663 133.232C510.225 130.094 503.453 126.177 492.004 127.341V127.398L493.376 140.916C500.213 140.221 503.651 142.213 508.403 144.965C513.832 148.112 520.613 152.03 532.072 150.865ZM560.68 142.316L562.859 128.854C556.078 127.736 553.27 124.918 549.41 121.038C544.977 116.604 539.454 111.071 528.08 109.22V109.286L525.901 122.691C532.682 123.79 535.49 126.599 539.379 130.498C543.774 134.941 549.297 140.475 560.68 142.316ZM590.463 141.376L596.099 128.939C589.834 126.12 587.852 122.673 585.11 117.91C581.973 112.461 578.075 105.697 567.565 101V101.056L561.995 113.447C568.26 116.266 570.242 119.704 572.984 124.476C576.121 129.916 580.019 136.689 590.529 141.386L590.463 141.376ZM619.542 148.225L628.164 137.656C622.838 133.316 621.815 129.474 620.396 124.157C618.781 118.088 616.771 110.545 607.839 103.255V103.302L599.189 113.851C604.505 118.201 605.528 122.034 606.947 127.351C608.562 133.42 610.581 140.963 619.513 148.253L619.542 148.225ZM645.765 162.344L656.819 154.369C652.809 148.798 652.818 144.824 652.818 139.338C652.818 133.063 652.818 125.247 646.094 115.852L634.992 123.884C639.012 129.455 639.002 133.429 639.002 138.915C639.002 145.191 639.002 153.007 645.727 162.401L645.765 162.344ZM667.423 182.833L680.178 177.995C677.736 171.57 678.769 167.727 680.178 162.42C681.803 156.351 683.841 148.807 679.746 137.995H679.69L666.991 142.814C669.433 149.239 668.4 153.082 666.991 158.389C665.357 164.449 663.319 171.992 667.414 182.815L667.423 182.833ZM683.09 208.179L696.661 206.798C695.966 199.968 697.958 196.53 700.719 191.767C703.856 186.328 707.772 179.555 706.608 168.094H706.551L693.036 169.465C693.731 176.304 691.74 179.743 688.988 184.496C685.842 189.935 681.925 196.709 683.09 208.17V208.179ZM691.684 236.709L705.143 238.889C706.26 232.106 709.078 229.297 712.948 225.436C717.399 221.002 722.922 215.478 724.772 204.102H724.716L711.304 201.922C710.205 208.705 707.397 211.514 703.499 215.403C699.056 219.828 693.524 225.352 691.684 236.738V236.709ZM692.623 266.527L705.058 272.163C707.876 265.897 711.323 263.915 716.094 261.163C721.532 258.034 728.304 254.136 733 243.624H732.944L720.555 238.053C717.738 244.319 714.3 246.301 709.529 249.053C704.091 252.182 697.319 256.08 692.623 266.593V266.527ZM685.776 295.611L696.351 304.235C700.691 298.909 704.532 297.885 709.848 296.466C715.906 294.85 723.457 292.84 730.746 283.906L720.142 275.226C715.793 280.543 711.952 281.567 706.645 282.985C700.578 284.601 693.027 286.621 685.738 295.555L685.776 295.611ZM671.65 321.803L679.624 332.878C685.193 328.858 689.166 328.858 694.651 328.867C700.925 328.867 708.74 328.867 718.132 322.141L710.186 311.121C704.617 315.142 700.644 315.133 695.159 315.133C688.885 315.133 681.07 315.133 671.725 321.85L671.65 321.803ZM651.297 343.56L656.143 356.317C662.558 353.875 666.4 354.908 671.706 356.317C677.774 357.952 685.316 359.981 696.126 355.894V355.838L691.298 343.137C684.884 345.57 681.042 344.537 675.735 343.137C669.677 341.502 662.135 339.464 651.316 343.56H651.297ZM625.957 359.239L627.337 372.813C634.165 372.118 637.603 374.11 642.365 376.872C647.803 380.009 654.575 383.927 666.024 382.762V382.706L664.653 369.187C657.824 369.882 654.377 367.891 649.625 365.138C644.196 361.991 637.415 358.074 625.957 359.239ZM597.31 367.74L595.131 381.202C601.912 382.302 604.711 385.12 608.6 389.009C613.033 393.453 618.546 398.986 629.929 400.836V400.771L632.099 387.365C625.327 386.266 622.519 383.457 618.631 379.558C614.197 375.115 608.684 369.582 597.301 367.74" fill="white" fill-opacity="0.2"/>
<defs>
<linearGradient id="paint0_linear" x1="600" y1="68.6949" x2="111.542" y2="270.279" gradientUnits="userSpaceOnUse">
<stop stop-color="#7A863B"/>
<stop offset="0.734957" stop-color="#016895"/>
</linearGradient>
</defs>
</svg>
