<svg width="600" height="390" viewBox="0 0 600 390" fill="none" xmlns="http://www.w3.org/2000/svg">
<rect width="600" height="390" fill="#E5E5E5"/>
<rect width="600" height="390" fill="url(#paint0_linear)" fill-opacity="0.85"/>
<path d="M590.473 304.712C595.535 306.986 597.414 310.245 598.926 312.866C600.25 315.159 601.208 316.821 604.214 318.174L601.537 324.139C596.474 321.857 594.596 318.597 593.084 315.985C591.759 313.684 590.801 312.03 587.796 310.668L590.482 304.684L590.473 304.712ZM576.516 301.396L572.374 306.478C574.928 308.573 575.426 310.424 576.131 312.979C576.91 315.901 577.878 319.555 582.179 323.04L586.312 317.967C583.748 315.882 583.259 314.031 582.555 311.476C581.775 308.554 580.808 304.9 576.506 301.415L576.516 301.396ZM563.874 294.651L558.558 298.493C560.483 301.18 560.483 303.087 560.483 305.736C560.483 308.761 560.483 312.519 563.714 317.009L569.011 313.186C567.086 310.499 567.086 308.592 567.086 305.943C567.086 302.918 567.086 299.16 563.846 294.67L563.874 294.651ZM553.43 284.787L547.296 287.135C548.461 290.236 547.973 292.077 547.296 294.651C546.517 297.573 545.54 301.227 547.503 306.394L553.617 304.073C552.443 300.983 552.941 299.132 553.617 296.558C554.406 293.636 555.383 289.982 553.411 284.815L553.43 284.787ZM545.897 272.603L539.322 273.27C539.661 276.558 538.703 278.211 537.378 280.503C535.866 283.124 533.978 286.375 534.561 291.898L541.06 291.241C540.731 287.953 541.68 286.299 543.014 284.007C544.526 281.396 546.404 278.136 545.831 272.612L545.897 272.603ZM541.699 258.878L535.218 257.825C534.692 261.085 533.34 262.438 531.461 264.307C529.32 266.44 526.662 269.099 525.769 274.575L532.222 275.618C532.757 272.358 534.1 271.006 535.979 269.136C538.12 267.004 540.778 264.345 541.671 258.868L541.699 258.878ZM541.238 244.523L535.246 241.836C533.894 244.852 532.241 245.801 529.94 247.125C527.319 248.638 524.069 250.507 521.787 255.58L527.751 258.267C529.104 255.251 530.766 254.293 533.058 252.969C535.678 251.466 538.937 249.587 541.21 244.514L541.238 244.523ZM544.498 230.545L539.416 226.402C537.322 228.957 535.472 229.455 532.917 230.159C529.996 230.939 526.342 231.907 522.858 236.209L527.93 240.343C530.015 237.778 531.865 237.29 534.42 236.585C537.341 235.805 540.994 234.838 544.479 230.535L544.498 230.545ZM551.382 217.9L547.541 212.573C544.855 214.509 542.948 214.509 540.299 214.509C537.275 214.509 533.518 214.509 529.029 217.74L532.851 223.039C535.537 221.113 537.453 221.113 540.093 221.113C543.117 221.113 546.874 221.113 551.363 217.872L551.382 217.9ZM561.188 207.425L558.896 201.319C555.806 202.493 553.965 201.995 551.382 201.319C548.461 200.539 544.808 199.562 539.642 201.526L541.962 207.641C545.052 206.467 546.902 206.965 549.475 207.641C552.396 208.43 556.05 209.407 561.206 207.435L561.188 207.425ZM573.416 199.919L572.749 193.343C569.462 193.681 567.8 192.723 565.517 191.399C562.897 189.877 559.647 187.998 554.125 188.58L554.792 195.091C558.079 194.752 559.732 195.72 562.024 197.035C564.635 198.557 567.894 200.436 573.416 199.853V199.919ZM587.148 195.72L588.2 189.238C584.941 188.712 583.588 187.359 581.719 185.48C579.587 183.338 576.929 180.68 571.453 179.787L570.411 186.241C573.67 186.777 575.022 188.12 576.891 189.999C579.024 192.141 581.682 194.799 587.157 195.692L587.148 195.72ZM601.499 195.26L604.185 189.266C601.18 187.913 600.222 186.26 598.897 183.958C597.395 181.347 595.516 178.078 590.444 175.804L587.786 181.92C590.792 183.273 591.75 184.935 593.074 187.228C594.577 189.849 596.456 193.108 601.527 195.382L601.499 195.26ZM615.484 198.67L619.636 193.588C617.081 191.493 616.583 189.642 615.879 187.087C615.099 184.165 614.132 180.511 609.839 177.025L605.707 182.098C608.262 184.184 608.759 186.035 609.464 188.59C610.253 191.511 611.22 195.166 615.512 198.651L615.484 198.67ZM628.117 205.405L633.433 201.563C631.507 198.876 631.507 196.969 631.507 194.32C631.507 191.295 631.507 187.538 628.276 183.047L622.979 186.88C624.905 189.557 624.905 191.474 624.905 194.114C624.905 197.139 624.905 200.896 628.145 205.387L628.117 205.405ZM638.589 215.213L644.722 212.883C643.558 209.793 644.046 207.951 644.722 205.368C645.502 202.446 646.479 198.792 644.516 193.625L638.364 196.011C639.538 199.102 639.04 200.953 638.364 203.527C637.575 206.448 636.598 210.103 638.57 215.26L638.589 215.213ZM646.084 227.473L652.612 226.806C652.283 223.518 653.241 221.855 654.565 219.572C656.077 216.951 657.965 213.701 657.383 208.177L650.884 208.844C651.212 212.132 650.254 213.785 648.93 216.077C647.418 218.689 645.539 221.939 646.112 227.473H646.084ZM650.245 241.207L656.726 242.259C657.252 238.99 658.604 237.647 660.482 235.777C662.624 233.645 665.282 230.986 666.174 225.509L659.722 224.466C659.186 227.726 657.843 229.079 655.965 230.948C653.823 233.081 651.165 235.74 650.273 241.216L650.245 241.207ZM650.705 255.561L656.697 258.258C658.05 255.233 659.712 254.284 662.004 252.959C664.624 251.447 667.884 249.577 670.156 244.504L664.089 241.808C662.737 244.824 661.084 245.782 658.782 247.107C656.171 248.61 652.912 250.489 650.63 255.561H650.705ZM647.333 269.521L652.424 273.674C654.518 271.109 656.369 270.62 658.923 269.916C661.844 269.136 665.498 268.168 668.982 263.866L663.92 259.732C661.835 262.288 659.985 262.786 657.43 263.49C654.509 264.26 650.855 265.237 647.362 269.531L647.333 269.521ZM640.608 282.157L644.45 287.474C647.136 285.548 649.043 285.548 651.691 285.548C654.716 285.548 658.473 285.548 662.962 282.316L659.139 277.018C656.463 278.944 654.547 278.944 651.907 278.944C648.883 278.944 645.126 278.944 640.637 282.185L640.608 282.157ZM630.812 292.631L633.142 298.766C636.232 297.591 638.073 298.089 640.655 298.766C643.567 299.555 647.23 300.532 652.386 298.559L650.001 292.406C646.911 293.58 645.06 293.082 642.487 292.406C639.566 291.617 635.912 290.64 630.756 292.612L630.812 292.631ZM618.546 300.128L619.204 306.657C622.491 306.328 624.153 307.286 626.436 308.611C629.056 310.123 632.306 312.011 637.828 311.429L637.162 304.928C633.874 305.257 632.221 304.299 629.929 302.974C627.318 301.462 624.059 299.573 618.546 300.156V300.128ZM604.805 304.289L603.753 310.771C607.012 311.298 608.365 312.65 610.234 314.529C612.366 316.671 615.024 319.33 620.5 320.222L621.552 313.768C618.293 313.233 616.94 311.889 615.071 310.011C612.939 307.869 610.281 305.21 604.805 304.318V304.289ZM587.805 331.11L583.814 339.988C588.284 341.998 589.693 344.459 591.656 347.86C593.891 351.74 596.662 356.568 604.167 359.941L608.139 351.101C603.669 349.091 602.26 346.639 600.297 343.238C598.062 339.358 595.281 334.53 587.786 331.148L587.805 331.11ZM567.124 326.272L560.972 333.787C564.775 336.887 565.499 339.621 566.513 343.416C567.668 347.747 569.105 353.13 575.473 358.335L581.597 350.819C577.84 347.719 577.07 344.976 576.056 341.19C574.91 336.859 573.473 331.476 567.095 326.272H567.124ZM548.377 316.201L540.487 321.894C543.305 325.868 543.305 328.705 543.305 332.632C543.305 337.113 543.305 342.684 548.095 349.354L555.956 343.717C553.092 339.743 553.092 336.906 553.092 332.979C553.092 328.508 553.092 322.928 548.301 316.258L548.377 316.201ZM532.814 301.678L523.816 304.985C525.553 309.569 524.811 312.303 523.816 316.098C522.651 320.419 521.205 325.802 524.116 333.496H524.163L533.218 330.058C531.48 325.473 532.213 322.74 533.218 318.944C534.382 314.623 535.829 309.24 532.908 301.546L532.814 301.678ZM521.731 283.462L512.047 284.402C512.536 289.277 511.108 291.739 509.155 295.13C506.91 299.01 504.12 303.838 504.947 312.04L514.583 311.1C514.086 306.225 515.523 303.773 517.476 300.372C519.721 296.502 522.51 291.673 521.684 283.462H521.731ZM515.56 263.105L505.952 261.546C505.172 266.374 503.134 268.385 500.382 271.156C497.217 274.312 493.272 278.258 491.929 286.375L501.603 287.934C502.392 283.096 504.421 281.095 507.173 278.314C510.347 275.158 514.292 271.222 515.626 263.105H515.56ZM514.978 241.846L506.111 237.853C504.102 242.325 501.641 243.734 498.241 245.697C494.362 247.933 489.534 250.714 486.153 258.22L494.982 262.194C497.001 257.722 499.452 256.313 502.852 254.35C506.731 252.123 511.559 249.333 514.931 241.836L514.978 241.846ZM519.815 221.169L512.301 215.016C509.202 218.82 506.468 219.544 502.674 220.558C498.344 221.714 492.962 223.151 487.768 229.521L495.282 235.646C498.382 231.888 501.124 231.118 504.909 230.103C509.239 228.957 514.621 227.52 519.824 221.141L519.815 221.169ZM529.893 202.418L524.201 194.518C520.228 197.392 517.392 197.383 513.466 197.383C508.986 197.383 503.416 197.383 496.747 202.174L502.383 210.037C506.356 207.172 509.192 207.172 513.109 207.172C517.589 207.172 523.168 207.172 529.836 202.381L529.893 202.418ZM544.404 186.889L541.051 177.833C536.467 179.571 533.734 178.829 529.94 177.833C525.619 176.668 520.237 175.222 512.545 178.134L515.983 187.19C520.566 185.452 523.299 186.185 527.094 187.19C531.414 188.355 536.796 189.802 544.479 186.88L544.404 186.889ZM562.568 175.701L561.629 166.015C556.754 166.504 554.303 165.076 550.913 163.122C547.034 160.877 542.206 158.087 534.006 158.913L534.946 168.552C539.82 168.054 542.272 169.491 545.662 171.445C549.541 173.681 554.359 176.481 562.568 175.654V175.701ZM582.931 169.529L584.48 159.919C579.643 159.139 577.643 157.1 574.872 154.348C571.707 151.182 567.781 147.227 559.657 145.893L558.098 155.616C562.935 156.405 564.935 158.434 567.706 161.187C570.871 164.362 574.806 168.308 582.931 169.642V169.529ZM604.176 168.993L608.168 160.116C603.697 158.115 602.288 155.654 600.325 152.253C598.09 148.373 595.31 143.535 587.815 140.162L583.823 149.04C588.294 151.041 589.703 153.502 591.665 156.903C593.901 160.783 596.681 165.611 604.176 168.984V168.993ZM624.839 173.869L630.991 166.354C627.234 163.253 626.464 160.51 625.459 156.724C624.304 152.394 622.867 147.011 616.499 141.806L610.375 149.322C614.132 152.422 614.902 155.165 615.907 158.951C617.062 163.282 618.499 168.665 624.867 173.869H624.839ZM643.595 183.94L651.494 178.247C648.676 174.273 648.676 171.436 648.676 167.509C648.676 163.037 648.676 157.457 643.886 150.787L636.025 156.424C638.89 160.398 638.89 163.235 638.89 167.152C638.89 171.633 638.89 177.213 643.68 183.883L643.595 183.94ZM659.168 198.454L668.259 195.006C666.522 190.422 667.264 187.679 668.259 183.893C669.424 179.571 670.87 174.188 667.959 166.494H667.912L658.858 169.933C660.595 174.517 659.863 177.251 658.858 181.037C657.693 185.368 656.247 190.741 659.168 198.435V198.454ZM670.344 216.528L680.028 215.589C679.53 210.713 680.967 208.261 682.921 204.861C685.165 200.99 687.955 196.162 687.128 187.951H687.081L677.445 188.89C677.943 193.766 676.506 196.218 674.552 199.619C672.307 203.489 669.518 208.318 670.344 216.528ZM676.468 236.886L686.076 238.445C686.856 233.607 688.894 231.606 691.646 228.835C694.811 225.669 698.756 221.733 700.099 213.616H700.052L690.387 212.122C689.598 216.96 687.57 218.961 684.818 221.742C681.643 224.899 677.698 228.835 676.365 236.951L676.468 236.886ZM677.013 258.211L685.888 262.203C687.898 257.731 690.35 256.322 693.75 254.359C697.629 252.123 702.456 249.342 705.838 241.846L696.962 237.853C694.952 242.325 692.491 243.734 689.091 245.697C685.212 247.933 680.385 250.714 677.013 258.211V258.211ZM672.129 278.878L679.643 285.031C682.733 281.273 685.475 280.513 689.27 279.498C693.6 278.342 698.981 276.905 704.175 270.536L696.661 264.411C693.571 268.168 690.829 268.939 687.044 269.944C682.714 271.1 677.332 272.537 672.129 278.906V278.878ZM662.06 297.638L667.752 305.539C671.725 302.664 674.561 302.721 678.487 302.721C682.958 302.721 688.537 302.721 695.206 297.93L689.57 290.066C685.597 292.932 682.761 292.932 678.844 292.885C674.364 292.885 668.785 292.885 662.117 297.685L662.06 297.638ZM647.549 313.176L650.996 322.27C655.58 320.532 658.322 321.265 662.107 322.27C666.428 323.435 671.81 324.882 679.502 321.969V321.922L676.064 312.866C671.481 314.604 668.748 313.872 664.963 312.866C660.642 311.701 655.251 310.255 647.568 313.176H647.549ZM629.479 324.356L630.418 334.041C635.292 333.543 637.744 334.98 641.134 336.934C645.013 339.18 649.841 341.97 658.04 341.143V341.096L657.101 331.458C652.227 331.955 649.775 330.518 646.385 328.564C642.506 326.319 637.687 323.529 629.479 324.356ZM609.116 330.481L607.557 340.091C612.394 340.871 614.395 342.909 617.175 345.662C620.331 348.828 624.266 352.773 632.381 354.117L633.884 344.44C629.047 343.651 627.046 341.622 624.275 338.87C621.12 335.694 617.184 331.749 609.06 330.415L609.116 330.481ZM584.527 363.624L578.892 376.061C585.157 378.88 587.138 382.327 589.881 387.09C593.018 392.53 596.916 399.303 607.426 404V403.934L612.995 391.553C606.731 388.734 604.749 385.287 601.997 380.524C598.869 375.084 594.972 368.311 584.462 363.614L584.527 363.624ZM555.449 356.775L546.827 367.344C552.152 371.684 553.176 375.526 554.594 380.843C556.21 386.912 558.22 394.455 567.152 401.745L575.736 391.224C570.42 386.874 569.396 383.041 567.978 377.724C566.363 371.656 564.343 364.103 555.411 356.822L555.449 356.775ZM529.113 342.731L518.058 350.706C522.069 356.277 522.06 360.251 522.06 365.737C522.06 372.022 522.06 379.829 528.784 389.223H528.831L539.848 381.275C535.829 375.705 535.838 371.731 535.838 366.244C535.838 359.969 535.838 352.153 529.113 342.759V342.731ZM507.417 322.326L494.662 327.164C497.104 333.59 496.071 337.423 494.662 342.74C493.037 348.809 490.999 356.343 495.094 367.165H495.151L507.849 362.346C505.407 355.92 506.44 352.087 507.849 346.78C509.483 340.72 511.512 333.167 507.426 322.355L507.417 322.326ZM491.751 296.99L478.179 298.371C478.874 305.201 476.883 308.639 474.121 313.402C470.984 318.832 467.068 325.614 468.233 337.066H468.289L481.804 335.694C481.109 328.855 483.1 325.417 485.852 320.664C488.999 315.234 492.915 308.451 491.751 296.999V296.99ZM483.307 268.347L469.848 266.168C468.73 272.95 465.913 275.759 462.043 279.62C457.591 284.054 452.068 289.578 450.218 300.954H450.275L463.687 303.124C464.786 296.351 467.594 293.542 471.492 289.653C475.934 285.257 481.466 279.733 483.307 268.347ZM482.368 238.558L469.933 232.921C467.115 239.187 463.668 241.169 458.906 243.922C453.468 247.05 446.696 250.949 442 261.461H442.056L454.445 267.032C457.262 260.766 460.709 258.784 465.471 256.04C470.909 252.903 477.681 249.004 482.377 238.492L482.368 238.558ZM489.215 209.473L478.649 200.849C474.309 206.176 470.468 207.2 465.152 208.618C459.094 210.234 451.543 212.244 444.254 221.178H444.301L454.849 229.831C459.197 224.504 463.029 223.48 468.345 222.061C474.413 220.455 481.955 218.435 489.243 209.501L489.215 209.473ZM503.331 183.254L495.357 172.187C489.788 176.199 485.805 176.189 480.33 176.189C474.046 176.189 466.241 176.189 456.849 182.916V182.963L464.795 193.982C470.365 189.971 474.338 189.971 479.823 189.971C486.106 189.971 493.911 189.971 503.303 183.254H503.331ZM523.731 161.544L518.885 148.786C512.47 151.229 508.629 150.186 503.322 148.786C497.255 147.152 489.713 145.123 478.902 149.209V149.265L483.73 161.966C490.145 159.524 493.986 160.557 499.293 161.966C505.351 163.601 512.893 165.64 523.713 161.544H523.731ZM549.072 145.865L547.691 132.29C540.863 132.985 537.425 130.994 532.663 128.232C527.225 125.094 520.453 121.177 509.004 122.341V122.398L510.376 135.916C517.213 135.221 520.651 137.213 525.403 139.965C530.832 143.112 537.613 147.03 549.072 145.865V145.865ZM577.68 137.316L579.859 123.854C573.078 122.736 570.27 119.918 566.41 116.038C561.977 111.604 556.454 106.071 545.08 104.22V104.286L542.901 117.691C549.682 118.79 552.49 121.599 556.379 125.498C560.774 129.941 566.297 135.475 577.68 137.316ZM607.463 136.377L613.099 123.939C606.834 121.12 604.852 117.673 602.11 112.91C598.973 107.461 595.075 100.697 584.565 96V96.0564L578.995 108.447C585.26 111.266 587.242 114.704 589.984 119.476C593.121 124.916 597.019 131.689 607.529 136.386L607.463 136.377ZM636.542 143.225L645.164 132.656C639.838 128.316 638.815 124.474 637.396 119.157C635.781 113.088 633.771 105.545 624.839 98.2546V98.3016L616.189 108.851C621.505 113.201 622.528 117.034 623.947 122.351C625.562 128.42 627.581 135.963 636.513 143.253L636.542 143.225ZM662.765 157.344L673.819 149.369C669.809 143.798 669.818 139.824 669.818 134.338C669.818 128.063 669.818 120.247 663.094 110.852L651.992 118.884C656.012 124.455 656.002 128.429 656.002 133.915C656.002 140.191 656.002 148.007 662.727 157.401L662.765 157.344ZM684.423 177.833L697.178 172.995C694.736 166.57 695.769 162.727 697.178 157.42C698.803 151.351 700.841 143.807 696.746 132.995H696.69L683.991 137.814C686.433 144.239 685.4 148.082 683.991 153.389C682.357 159.449 680.319 166.992 684.414 177.815L684.423 177.833ZM700.09 203.179L713.661 201.798C712.966 194.968 714.958 191.53 717.719 186.767C720.856 181.328 724.772 174.555 723.608 163.094H723.551L710.036 164.465C710.731 171.304 708.74 174.743 705.988 179.496C702.842 184.935 698.925 191.709 700.09 203.17V203.179ZM708.684 231.709L722.143 233.889C723.26 227.106 726.078 224.297 729.948 220.436C734.399 216.002 739.922 210.478 741.772 199.102H741.716L728.304 196.922C727.205 203.705 724.397 206.514 720.499 210.403C716.056 214.828 710.524 220.352 708.684 231.738V231.709ZM709.623 261.527L722.058 267.163C724.876 260.897 728.323 258.915 733.094 256.163C738.532 253.034 745.304 249.136 750 238.624H749.944L737.555 233.053C734.738 239.319 731.3 241.301 726.529 244.053C721.091 247.182 714.319 251.08 709.623 261.593V261.527ZM702.776 290.611L713.351 299.235C717.691 293.909 721.532 292.885 726.848 291.466C732.906 289.85 740.457 287.84 747.746 278.906L737.142 270.226C732.793 275.543 728.952 276.567 723.645 277.985C717.578 279.601 710.027 281.621 702.738 290.555L702.776 290.611ZM688.65 316.803L696.624 327.878C702.193 323.858 706.166 323.858 711.651 323.867C717.925 323.867 725.74 323.867 735.132 317.141L727.186 306.121C721.617 310.142 717.644 310.133 712.159 310.133C705.885 310.133 698.07 310.133 688.725 316.85L688.65 316.803ZM668.297 338.56L673.143 351.317C679.558 348.875 683.4 349.908 688.706 351.317C694.774 352.952 702.316 354.981 713.126 350.894V350.838L708.298 338.137C701.884 340.57 698.042 339.537 692.735 338.137C686.677 336.502 679.135 334.464 668.316 338.56H668.297ZM642.957 354.239L644.337 367.813C651.165 367.118 654.603 369.11 659.365 371.872C664.803 375.009 671.575 378.927 683.024 377.762V377.705L681.653 364.187C674.824 364.882 671.377 362.891 666.625 360.138C661.196 356.991 654.415 353.074 642.957 354.239V354.239ZM614.31 362.74L612.131 376.202C618.912 377.302 621.711 380.12 625.6 384.009C630.033 388.453 635.546 393.986 646.929 395.836V395.771L649.099 382.365C642.327 381.266 639.519 378.457 635.631 374.558C631.197 370.115 625.684 364.582 614.301 362.74" fill="white" fill-opacity="0.2"/>
<defs>
<linearGradient id="paint0_linear" x1="600" y1="0" x2="294.422" y2="549.996" gradientUnits="userSpaceOnUse">
<stop stop-color="#B1040E"/>
<stop offset="1" stop-color="#620059"/>
</linearGradient>
</defs>
</svg>
